<?xml version="1.0" encoding="UTF-8"?>
<svg xmlns="http://www.w3.org/2000/svg" viewBox="0 0 1920 1080" width="1920" height="1080">
  <defs>
    <linearGradient id="transformGradient" x1="0%" y1="0%" x2="100%" y2="0%">
      <stop offset="0%" style="stop-color:#4d6a90;stop-opacity:1" />
      <stop offset="35%" style="stop-color:#6c8aa9;stop-opacity:1" />
      <stop offset="65%" style="stop-color:#aa9165;stop-opacity:1" />
      <stop offset="100%" style="stop-color:#d9b237;stop-opacity:1" />
    </linearGradient>

    <radialGradient id="vesselGlow" cx="50%" cy="50%" r="50%">
      <stop offset="0%" style="stop-color:#e4bf47;stop-opacity:0.2" />
      <stop offset="100%" style="stop-color:#e4bf47;stop-opacity:0" />
    </radialGradient>

    <radialGradient id="enrichGlow" cx="50%" cy="50%" r="50%">
      <stop offset="0%" style="stop-color:#6c8aa9;stop-opacity:0.12" />
      <stop offset="100%" style="stop-color:#6c8aa9;stop-opacity:0" />
    </radialGradient>
  </defs>

  <!-- Background -->
  <rect width="100%" height="100%" fill="#08080c"/>

  <!-- Grid -->
  <line x1="0" y1="0" x2="0" y2="1080" stroke="#16161c" stroke-width="0.5" opacity="0.1"/><line x1="40" y1="0" x2="40" y2="1080" stroke="#16161c" stroke-width="0.5" opacity="0.03"/><line x1="80" y1="0" x2="80" y2="1080" stroke="#16161c" stroke-width="0.5" opacity="0.03"/><line x1="120" y1="0" x2="120" y2="1080" stroke="#16161c" stroke-width="0.5" opacity="0.03"/><line x1="160" y1="0" x2="160" y2="1080" stroke="#16161c" stroke-width="0.5" opacity="0.03"/><line x1="200" y1="0" x2="200" y2="1080" stroke="#16161c" stroke-width="0.5" opacity="0.1"/><line x1="240" y1="0" x2="240" y2="1080" stroke="#16161c" stroke-width="0.5" opacity="0.03"/><line x1="280" y1="0" x2="280" y2="1080" stroke="#16161c" stroke-width="0.5" opacity="0.03"/><line x1="320" y1="0" x2="320" y2="1080" stroke="#16161c" stroke-width="0.5" opacity="0.03"/><line x1="360" y1="0" x2="360" y2="1080" stroke="#16161c" stroke-width="0.5" opacity="0.03"/><line x1="400" y1="0" x2="400" y2="1080" stroke="#16161c" stroke-width="0.5" opacity="0.1"/><line x1="440" y1="0" x2="440" y2="1080" stroke="#16161c" stroke-width="0.5" opacity="0.03"/><line x1="480" y1="0" x2="480" y2="1080" stroke="#16161c" stroke-width="0.5" opacity="0.03"/><line x1="520" y1="0" x2="520" y2="1080" stroke="#16161c" stroke-width="0.5" opacity="0.03"/><line x1="560" y1="0" x2="560" y2="1080" stroke="#16161c" stroke-width="0.5" opacity="0.03"/><line x1="600" y1="0" x2="600" y2="1080" stroke="#16161c" stroke-width="0.5" opacity="0.1"/><line x1="640" y1="0" x2="640" y2="1080" stroke="#16161c" stroke-width="0.5" opacity="0.03"/><line x1="680" y1="0" x2="680" y2="1080" stroke="#16161c" stroke-width="0.5" opacity="0.03"/><line x1="720" y1="0" x2="720" y2="1080" stroke="#16161c" stroke-width="0.5" opacity="0.03"/><line x1="760" y1="0" x2="760" y2="1080" stroke="#16161c" stroke-width="0.5" opacity="0.03"/><line x1="800" y1="0" x2="800" y2="1080" stroke="#16161c" stroke-width="0.5" opacity="0.1"/><line x1="840" y1="0" x2="840" y2="1080" stroke="#16161c" stroke-width="0.5" opacity="0.03"/><line x1="880" y1="0" x2="880" y2="1080" stroke="#16161c" stroke-width="0.5" opacity="0.03"/><line x1="920" y1="0" x2="920" y2="1080" stroke="#16161c" stroke-width="0.5" opacity="0.03"/><line x1="960" y1="0" x2="960" y2="1080" stroke="#16161c" stroke-width="0.5" opacity="0.03"/><line x1="1000" y1="0" x2="1000" y2="1080" stroke="#16161c" stroke-width="0.5" opacity="0.1"/><line x1="1040" y1="0" x2="1040" y2="1080" stroke="#16161c" stroke-width="0.5" opacity="0.03"/><line x1="1080" y1="0" x2="1080" y2="1080" stroke="#16161c" stroke-width="0.5" opacity="0.03"/><line x1="1120" y1="0" x2="1120" y2="1080" stroke="#16161c" stroke-width="0.5" opacity="0.03"/><line x1="1160" y1="0" x2="1160" y2="1080" stroke="#16161c" stroke-width="0.5" opacity="0.03"/><line x1="1200" y1="0" x2="1200" y2="1080" stroke="#16161c" stroke-width="0.5" opacity="0.1"/><line x1="1240" y1="0" x2="1240" y2="1080" stroke="#16161c" stroke-width="0.5" opacity="0.03"/><line x1="1280" y1="0" x2="1280" y2="1080" stroke="#16161c" stroke-width="0.5" opacity="0.03"/><line x1="1320" y1="0" x2="1320" y2="1080" stroke="#16161c" stroke-width="0.5" opacity="0.03"/><line x1="1360" y1="0" x2="1360" y2="1080" stroke="#16161c" stroke-width="0.5" opacity="0.03"/><line x1="1400" y1="0" x2="1400" y2="1080" stroke="#16161c" stroke-width="0.5" opacity="0.1"/><line x1="1440" y1="0" x2="1440" y2="1080" stroke="#16161c" stroke-width="0.5" opacity="0.03"/><line x1="1480" y1="0" x2="1480" y2="1080" stroke="#16161c" stroke-width="0.5" opacity="0.03"/><line x1="1520" y1="0" x2="1520" y2="1080" stroke="#16161c" stroke-width="0.5" opacity="0.03"/><line x1="1560" y1="0" x2="1560" y2="1080" stroke="#16161c" stroke-width="0.5" opacity="0.03"/><line x1="1600" y1="0" x2="1600" y2="1080" stroke="#16161c" stroke-width="0.5" opacity="0.1"/><line x1="1640" y1="0" x2="1640" y2="1080" stroke="#16161c" stroke-width="0.5" opacity="0.03"/><line x1="1680" y1="0" x2="1680" y2="1080" stroke="#16161c" stroke-width="0.5" opacity="0.03"/><line x1="1720" y1="0" x2="1720" y2="1080" stroke="#16161c" stroke-width="0.5" opacity="0.03"/><line x1="1760" y1="0" x2="1760" y2="1080" stroke="#16161c" stroke-width="0.5" opacity="0.03"/><line x1="1800" y1="0" x2="1800" y2="1080" stroke="#16161c" stroke-width="0.5" opacity="0.1"/><line x1="1840" y1="0" x2="1840" y2="1080" stroke="#16161c" stroke-width="0.5" opacity="0.03"/><line x1="1880" y1="0" x2="1880" y2="1080" stroke="#16161c" stroke-width="0.5" opacity="0.03"/><line x1="1920" y1="0" x2="1920" y2="1080" stroke="#16161c" stroke-width="0.5" opacity="0.03"/><line x1="0" y1="0" x2="1920" y2="0" stroke="#16161c" stroke-width="0.5" opacity="0.1"/><line x1="0" y1="40" x2="1920" y2="40" stroke="#16161c" stroke-width="0.5" opacity="0.03"/><line x1="0" y1="80" x2="1920" y2="80" stroke="#16161c" stroke-width="0.5" opacity="0.03"/><line x1="0" y1="120" x2="1920" y2="120" stroke="#16161c" stroke-width="0.5" opacity="0.03"/><line x1="0" y1="160" x2="1920" y2="160" stroke="#16161c" stroke-width="0.5" opacity="0.03"/><line x1="0" y1="200" x2="1920" y2="200" stroke="#16161c" stroke-width="0.5" opacity="0.1"/><line x1="0" y1="240" x2="1920" y2="240" stroke="#16161c" stroke-width="0.5" opacity="0.03"/><line x1="0" y1="280" x2="1920" y2="280" stroke="#16161c" stroke-width="0.5" opacity="0.03"/><line x1="0" y1="320" x2="1920" y2="320" stroke="#16161c" stroke-width="0.5" opacity="0.03"/><line x1="0" y1="360" x2="1920" y2="360" stroke="#16161c" stroke-width="0.5" opacity="0.03"/><line x1="0" y1="400" x2="1920" y2="400" stroke="#16161c" stroke-width="0.5" opacity="0.1"/><line x1="0" y1="440" x2="1920" y2="440" stroke="#16161c" stroke-width="0.5" opacity="0.03"/><line x1="0" y1="480" x2="1920" y2="480" stroke="#16161c" stroke-width="0.5" opacity="0.03"/><line x1="0" y1="520" x2="1920" y2="520" stroke="#16161c" stroke-width="0.5" opacity="0.03"/><line x1="0" y1="560" x2="1920" y2="560" stroke="#16161c" stroke-width="0.5" opacity="0.03"/><line x1="0" y1="600" x2="1920" y2="600" stroke="#16161c" stroke-width="0.5" opacity="0.1"/><line x1="0" y1="640" x2="1920" y2="640" stroke="#16161c" stroke-width="0.5" opacity="0.03"/><line x1="0" y1="680" x2="1920" y2="680" stroke="#16161c" stroke-width="0.5" opacity="0.03"/><line x1="0" y1="720" x2="1920" y2="720" stroke="#16161c" stroke-width="0.5" opacity="0.03"/><line x1="0" y1="760" x2="1920" y2="760" stroke="#16161c" stroke-width="0.5" opacity="0.03"/><line x1="0" y1="800" x2="1920" y2="800" stroke="#16161c" stroke-width="0.5" opacity="0.1"/><line x1="0" y1="840" x2="1920" y2="840" stroke="#16161c" stroke-width="0.5" opacity="0.03"/><line x1="0" y1="880" x2="1920" y2="880" stroke="#16161c" stroke-width="0.5" opacity="0.03"/><line x1="0" y1="920" x2="1920" y2="920" stroke="#16161c" stroke-width="0.5" opacity="0.03"/><line x1="0" y1="960" x2="1920" y2="960" stroke="#16161c" stroke-width="0.5" opacity="0.03"/><line x1="0" y1="1000" x2="1920" y2="1000" stroke="#16161c" stroke-width="0.5" opacity="0.1"/><line x1="0" y1="1040" x2="1920" y2="1040" stroke="#16161c" stroke-width="0.5" opacity="0.03"/><line x1="0" y1="1080" x2="1920" y2="1080" stroke="#16161c" stroke-width="0.5" opacity="0.03"/>

  <!-- Pipeline -->
  
      <circle cx="200" cy="520" r="72"
              fill="none" stroke="#4d6a90" stroke-width="0.5" opacity="0.2"/>
      <circle cx="200" cy="520" r="66"
              fill="none" stroke="#4d6a90" stroke-width="0.5" opacity="0.3"/>
    
      <circle cx="200" cy="520" r="58"
              fill="#08080c" stroke="#4d6a90" stroke-width="2"/>
    
      <circle cx="200" cy="520" r="42"
              fill="none" stroke="#4d6a90" stroke-width="0.5" opacity="0.3"/>
      <circle cx="200" cy="520" r="34"
              fill="none" stroke="#4d6a90" stroke-width="0.5" opacity="0.2"/>
    
      <text x="200" y="508"
            font-family="Georgia, serif" font-size="10"
            fill="#7a7568" text-anchor="middle" opacity="0.45">
        I
      </text>
    
      <text x="200" y="526"
            font-family="system-ui, -apple-system, sans-serif" font-size="11" font-weight="500"
            fill="#4d6a90" text-anchor="middle" letter-spacing="3">
        SCAN
      </text>
    <circle cx="280" cy="520" r="1.2" fill="#4d6a90" opacity="0.2"/><circle cx="256.5685424949238" cy="576.5685424949238" r="1.2" fill="#4d6a90" opacity="0.2"/><circle cx="200" cy="600" r="1.2" fill="#4d6a90" opacity="0.2"/><circle cx="143.4314575050762" cy="576.5685424949238" r="1.2" fill="#4d6a90" opacity="0.2"/><circle cx="120" cy="520" r="1.2" fill="#4d6a90" opacity="0.2"/><circle cx="143.4314575050762" cy="463.4314575050762" r="1.2" fill="#4d6a90" opacity="0.2"/><circle cx="199.99999999999997" cy="440" r="1.2" fill="#4d6a90" opacity="0.2"/><circle cx="256.5685424949238" cy="463.4314575050762" r="1.2" fill="#4d6a90" opacity="0.2"/>
      <circle cx="470" cy="520" r="72"
              fill="none" stroke="#6c8aa9" stroke-width="0.5" opacity="0.2"/>
      <circle cx="470" cy="520" r="66"
              fill="none" stroke="#6c8aa9" stroke-width="0.5" opacity="0.3"/>
    
      <circle cx="470" cy="520" r="58"
              fill="#08080c" stroke="#6c8aa9" stroke-width="2"/>
    <circle cx="470" cy="520" r="52" fill="url(#enrichGlow)"/>
      <circle cx="470" cy="520" r="42"
              fill="none" stroke="#6c8aa9" stroke-width="0.5" opacity="0.3"/>
      <circle cx="470" cy="520" r="34"
              fill="none" stroke="#6c8aa9" stroke-width="0.5" opacity="0.2"/>
    
      <text x="470" y="508"
            font-family="Georgia, serif" font-size="10"
            fill="#7a7568" text-anchor="middle" opacity="0.45">
        II
      </text>
    
      <text x="470" y="526"
            font-family="system-ui, -apple-system, sans-serif" font-size="11" font-weight="500"
            fill="#6c8aa9" text-anchor="middle" letter-spacing="3">
        ENRICH
      </text>
    <circle cx="550" cy="520" r="1.2" fill="#6c8aa9" opacity="0.2"/><circle cx="526.5685424949238" cy="576.5685424949238" r="1.2" fill="#6c8aa9" opacity="0.2"/><circle cx="470" cy="600" r="1.2" fill="#6c8aa9" opacity="0.2"/><circle cx="413.4314575050762" cy="576.5685424949238" r="1.2" fill="#6c8aa9" opacity="0.2"/><circle cx="390" cy="520" r="1.2" fill="#6c8aa9" opacity="0.2"/><circle cx="413.4314575050762" cy="463.4314575050762" r="1.2" fill="#6c8aa9" opacity="0.2"/><circle cx="470" cy="440" r="1.2" fill="#6c8aa9" opacity="0.2"/><circle cx="526.5685424949238" cy="463.4314575050762" r="1.2" fill="#6c8aa9" opacity="0.2"/>
      <circle cx="740" cy="520" r="72"
              fill="none" stroke="#6c8aa9" stroke-width="0.5" opacity="0.2"/>
      <circle cx="740" cy="520" r="66"
              fill="none" stroke="#6c8aa9" stroke-width="0.5" opacity="0.3"/>
    
      <circle cx="740" cy="520" r="58"
              fill="#08080c" stroke="#6c8aa9" stroke-width="2"/>
    
      <circle cx="740" cy="520" r="42"
              fill="none" stroke="#6c8aa9" stroke-width="0.5" opacity="0.3"/>
      <circle cx="740" cy="520" r="34"
              fill="none" stroke="#6c8aa9" stroke-width="0.5" opacity="0.2"/>
    
      <text x="740" y="508"
            font-family="Georgia, serif" font-size="10"
            fill="#7a7568" text-anchor="middle" opacity="0.45">
        III
      </text>
    
      <text x="740" y="526"
            font-family="system-ui, -apple-system, sans-serif" font-size="11" font-weight="500"
            fill="#6c8aa9" text-anchor="middle" letter-spacing="3">
        CLASSIFY
      </text>
    <circle cx="820" cy="520" r="1.2" fill="#6c8aa9" opacity="0.2"/><circle cx="796.5685424949238" cy="576.5685424949238" r="1.2" fill="#6c8aa9" opacity="0.2"/><circle cx="740" cy="600" r="1.2" fill="#6c8aa9" opacity="0.2"/><circle cx="683.4314575050762" cy="576.5685424949238" r="1.2" fill="#6c8aa9" opacity="0.2"/><circle cx="660" cy="520" r="1.2" fill="#6c8aa9" opacity="0.2"/><circle cx="683.4314575050762" cy="463.4314575050762" r="1.2" fill="#6c8aa9" opacity="0.2"/><circle cx="740" cy="440" r="1.2" fill="#6c8aa9" opacity="0.2"/><circle cx="796.5685424949238" cy="463.4314575050762" r="1.2" fill="#6c8aa9" opacity="0.2"/>
      <circle cx="1010" cy="520" r="72"
              fill="none" stroke="#aa9165" stroke-width="0.5" opacity="0.2"/>
      <circle cx="1010" cy="520" r="66"
              fill="none" stroke="#aa9165" stroke-width="0.5" opacity="0.3"/>
    
      <circle cx="1010" cy="520" r="58"
              fill="#08080c" stroke="#aa9165" stroke-width="2"/>
    
      <circle cx="1010" cy="520" r="42"
              fill="none" stroke="#aa9165" stroke-width="0.5" opacity="0.3"/>
      <circle cx="1010" cy="520" r="34"
              fill="none" stroke="#aa9165" stroke-width="0.5" opacity="0.2"/>
    
      <text x="1010" y="508"
            font-family="Georgia, serif" font-size="10"
            fill="#7a7568" text-anchor="middle" opacity="0.45">
        IV
      </text>
    
      <text x="1010" y="526"
            font-family="system-ui, -apple-system, sans-serif" font-size="11" font-weight="500"
            fill="#aa9165" text-anchor="middle" letter-spacing="3">
        SUGGEST
      </text>
    <circle cx="1090" cy="520" r="1.2" fill="#aa9165" opacity="0.2"/><circle cx="1066.5685424949238" cy="576.5685424949238" r="1.2" fill="#aa9165" opacity="0.2"/><circle cx="1010" cy="600" r="1.2" fill="#aa9165" opacity="0.2"/><circle cx="953.4314575050762" cy="576.5685424949238" r="1.2" fill="#aa9165" opacity="0.2"/><circle cx="930" cy="520" r="1.2" fill="#aa9165" opacity="0.2"/><circle cx="953.4314575050762" cy="463.4314575050762" r="1.2" fill="#aa9165" opacity="0.2"/><circle cx="1010" cy="440" r="1.2" fill="#aa9165" opacity="0.2"/><circle cx="1066.5685424949238" cy="463.4314575050762" r="1.2" fill="#aa9165" opacity="0.2"/>
      <circle cx="1280" cy="520" r="72"
              fill="none" stroke="#aa9165" stroke-width="0.5" opacity="0.2"/>
      <circle cx="1280" cy="520" r="66"
              fill="none" stroke="#aa9165" stroke-width="0.5" opacity="0.3"/>
    
      <circle cx="1280" cy="520" r="58"
              fill="#08080c" stroke="#aa9165" stroke-width="2"/>
    <circle cx="1280" cy="520" r="52" fill="url(#vesselGlow)"/>
      <circle cx="1280" cy="520" r="42"
              fill="none" stroke="#aa9165" stroke-width="0.5" opacity="0.3"/>
      <circle cx="1280" cy="520" r="34"
              fill="none" stroke="#aa9165" stroke-width="0.5" opacity="0.2"/>
    
      <text x="1280" y="508"
            font-family="Georgia, serif" font-size="10"
            fill="#7a7568" text-anchor="middle" opacity="0.45">
        V
      </text>
    
      <text x="1280" y="526"
            font-family="system-ui, -apple-system, sans-serif" font-size="11" font-weight="500"
            fill="#aa9165" text-anchor="middle" letter-spacing="3">
        REVIEW
      </text>
    <circle cx="1360" cy="520" r="1.2" fill="#aa9165" opacity="0.2"/><circle cx="1336.5685424949238" cy="576.5685424949238" r="1.2" fill="#aa9165" opacity="0.2"/><circle cx="1280" cy="600" r="1.2" fill="#aa9165" opacity="0.2"/><circle cx="1223.4314575050762" cy="576.5685424949238" r="1.2" fill="#aa9165" opacity="0.2"/><circle cx="1200" cy="520" r="1.2" fill="#aa9165" opacity="0.2"/><circle cx="1223.4314575050762" cy="463.4314575050762" r="1.2" fill="#aa9165" opacity="0.2"/><circle cx="1280" cy="440" r="1.2" fill="#aa9165" opacity="0.2"/><circle cx="1336.5685424949238" cy="463.4314575050762" r="1.2" fill="#aa9165" opacity="0.2"/>
      <circle cx="1550" cy="520" r="72"
              fill="none" stroke="#d9b237" stroke-width="0.5" opacity="0.2"/>
      <circle cx="1550" cy="520" r="66"
              fill="none" stroke="#d9b237" stroke-width="0.5" opacity="0.3"/>
    
      <circle cx="1550" cy="520" r="58"
              fill="#08080c" stroke="#d9b237" stroke-width="2"/>
    <circle cx="1550" cy="520" r="52" fill="url(#vesselGlow)"/>
      <circle cx="1550" cy="520" r="42"
              fill="none" stroke="#d9b237" stroke-width="0.5" opacity="0.3"/>
      <circle cx="1550" cy="520" r="34"
              fill="none" stroke="#d9b237" stroke-width="0.5" opacity="0.2"/>
    
      <text x="1550" y="508"
            font-family="Georgia, serif" font-size="10"
            fill="#7a7568" text-anchor="middle" opacity="0.45">
        VI
      </text>
    
      <text x="1550" y="526"
            font-family="system-ui, -apple-system, sans-serif" font-size="11" font-weight="500"
            fill="#d9b237" text-anchor="middle" letter-spacing="3">
        EXECUTE
      </text>
    <circle cx="1630" cy="520" r="1.2" fill="#d9b237" opacity="0.2"/><circle cx="1606.5685424949238" cy="576.5685424949238" r="1.2" fill="#d9b237" opacity="0.2"/><circle cx="1550" cy="600" r="1.2" fill="#d9b237" opacity="0.2"/><circle cx="1493.4314575050762" cy="576.5685424949238" r="1.2" fill="#d9b237" opacity="0.2"/><circle cx="1470" cy="520" r="1.2" fill="#d9b237" opacity="0.2"/><circle cx="1493.4314575050762" cy="463.4314575050762" r="1.2" fill="#d9b237" opacity="0.2"/><circle cx="1550" cy="440" r="1.2" fill="#d9b237" opacity="0.2"/><circle cx="1606.5685424949238" cy="463.4314575050762" r="1.2" fill="#d9b237" opacity="0.2"/>

  <!-- Flows -->
  
      <line x1="276" y1="520" x2="394" y2="520"
            stroke="url(#transformGradient)" stroke-width="1.5"
            stroke-dasharray="8,4" opacity="0.45"/>
    
      <polygon points="330,516 340,520 330,524"
               fill="#4a4a54" opacity="0.6"/>
    
      <line x1="546" y1="520" x2="664" y2="520"
            stroke="url(#transformGradient)" stroke-width="1.5"
            stroke-dasharray="8,4" opacity="0.45"/>
    
      <polygon points="600,516 610,520 600,524"
               fill="#4a4a54" opacity="0.6"/>
    
      <line x1="816" y1="520" x2="934" y2="520"
            stroke="url(#transformGradient)" stroke-width="1.5"
            stroke-dasharray="8,4" opacity="0.45"/>
    
      <polygon points="870,516 880,520 870,524"
               fill="#4a4a54" opacity="0.6"/>
    
      <line x1="1086" y1="520" x2="1204" y2="520"
            stroke="url(#transformGradient)" stroke-width="1.5"
            stroke-dasharray="8,4" opacity="0.45"/>
    
      <polygon points="1140,516 1150,520 1140,524"
               fill="#4a4a54" opacity="0.6"/>
    
      <line x1="1356" y1="520" x2="1474" y2="520"
            stroke="url(#transformGradient)" stroke-width="1.5"
            stroke-dasharray="8,4" opacity="0.45"/>
    
      <polygon points="1410,516 1420,520 1410,524"
               fill="#4a4a54" opacity="0.6"/>
    

  <!-- Strategy -->
  
    <rect x="360" y="608" width="220" height="84"
          fill="none" stroke="#6c8aa9" stroke-width="0.6" opacity="0.3" rx="2"/>

    <line x1="360" y1="628" x2="580" y2="628"
          stroke="#6c8aa9" stroke-width="0.5" opacity="0.25"/>

    <text x="470" y="620"
          font-family="monospace" font-size="8"
          fill="#7a7568" text-anchor="middle" letter-spacing="1.5" opacity="0.5">
      STRATEGY PATTERN
    </text>

    <text x="375" y="646"
          font-family="monospace" font-size="9"
          fill="#e4bf47" opacity="0.8">
      BookmarkStrategy
    </text>
    <text x="545" y="646"
          font-family="monospace" font-size="8"
          fill="#7a7568" opacity="0.4">
      p:100
    </text>

    <text x="375" y="662"
          font-family="monospace" font-size="9"
          fill="#7a7568" opacity="0.3">
      [PDFStrategy]
    </text>
    <text x="545" y="662"
          font-family="monospace" font-size="8"
          fill="#7a7568" opacity="0.2">
      p:90
    </text>

    <text x="375" y="678"
          font-family="monospace" font-size="9"
          fill="#7a7568" opacity="0.3">
      [ImageStrategy]
    </text>
    <text x="545" y="678"
          font-family="monospace" font-size="8"
          fill="#7a7568" opacity="0.2">
      p:80
    </text>

    <line x1="470" y1="608" x2="470" y2="595"
          stroke="#6c8aa9" stroke-width="0.5" stroke-dasharray="3,3" opacity="0.25"/>
  

  <!-- Labels -->
  
    <text x="960" y="55"
          font-family="system-ui, -apple-system, sans-serif" font-size="10" font-weight="300"
          fill="#7a7568" text-anchor="middle" letter-spacing="4" opacity="0.4">
      INBOX PROCESSING PIPELINE
    </text>

    <text x="960" y="1035"
          font-family="monospace" font-size="8"
          fill="#7a7568" text-anchor="middle" letter-spacing="1.5" opacity="0.3">
      Scan → Enrich → Classify → Suggest → Review → Execute
    </text>

    <text x="960" y="410"
          font-family="Georgia, serif" font-size="12" font-style="italic"
          fill="#7a7568" text-anchor="middle" opacity="0.35">
      The metamorphosis of raw matter into refined essence
    </text>

    <!-- Input -->
    <text x="85" y="517"
          font-family="monospace" font-size="9"
          fill="#4d6a90" text-anchor="middle" opacity="0.5">
      RAW
    </text>
    <text x="85" y="532"
          font-family="monospace" font-size="7"
          fill="#7a7568" text-anchor="middle" opacity="0.3">
      InboxFile
    </text>

    <line x1="115" y1="520" x2="135" y2="520"
          stroke="#4d6a90" stroke-width="1" opacity="0.35"/>
    <polygon points="135,517 142,520 135,523"
             fill="#4d6a90" opacity="0.35"/>

    <!-- Output -->
    <text x="1835" y="517"
          font-family="monospace" font-size="9"
          fill="#d9b237" text-anchor="middle" opacity="0.65">
      REFINED
    </text>
    <text x="1835" y="532"
          font-family="monospace" font-size="7"
          fill="#7a7568" text-anchor="middle" opacity="0.3">
      Organized Note
    </text>

    <line x1="1785" y1="520" x2="1805" y2="520"
          stroke="#d9b237" stroke-width="1" opacity="0.45"/>
    <polygon points="1798,517 1805,520 1798,523"
             fill="#d9b237" opacity="0.45"/>
  

  <!-- Title -->
  
    <g transform="translate(60, 980)">
      <text x="0" y="0"
            font-family="Georgia, serif" font-size="24" font-weight="400"
            fill="#f0ece4" letter-spacing="1.5" opacity="0.85">
        DATA ALCHEMY
      </text>
      <text x="0" y="22"
            font-family="system-ui, -apple-system, sans-serif" font-size="9" font-weight="300"
            fill="#7a7568" letter-spacing="3" opacity="0.4">
        ENRICHMENT PIPELINE ARCHITECTURE
      </text>

      <line x1="0" y1="32" x2="220" y2="32"
            stroke="#e4bf47" stroke-width="0.6" opacity="0.3"/>
    </g>

    <text x="1860" y="1025"
          font-family="monospace" font-size="7"
          fill="#7a7568" text-anchor="end" opacity="0.2">
      v1.0
    </text>
  

</svg>